<svg width="24" height="24" viewBox="0 0 24 24" fill="none" xmlns="http://www.w3.org/2000/svg">
<path d="M6.9989 7.08003C4.0829 7.08003 1.9989 8.81703 1.9989 12.08C1.9989 15.343 4.0829 17.08 6.9989 17.08H9.9989C12.9149 17.08 14.9989 15.343 14.9989 12.08C14.9989 11.984 14.9989 11.204 14.9989 11.08C14.9989 9.74703 12.9989 9.74703 12.9989 11.08C12.9989 11.212 12.9989 12.143 12.9989 12.143C12.9739 14.163 11.8619 15.08 9.9989 15.08H6.9989C5.1149 15.08 3.9989 14.15 3.9989 12.08C3.9989 10.01 5.1149 9.08003 6.9989 9.08003H7.9989C8.5509 9.08003 8.9989 8.63203 8.9989 8.08003C8.9989 7.52803 8.5509 7.08003 7.9989 7.08003H6.9989ZM13.9989 7.08003C12.5779 7.08003 11.4209 7.48204 10.5609 8.23604C9.5069 9.16104 8.9989 10.531 8.9989 12.08C8.9989 12.209 8.9989 12.376 8.9989 13.08C8.9989 13.632 9.4469 14.08 9.9989 14.08C10.5509 14.08 10.9989 13.632 10.9989 13.08C10.9989 12.376 10.9989 12.209 10.9989 12.08C10.9989 11.063 11.2999 10.24 11.8739 9.73604C12.3489 9.31904 13.0419 9.08003 13.9989 9.08003H16.9989C19.0689 9.08003 19.9989 10.196 19.9989 12.08C19.9989 13.964 19.0689 15.08 16.9989 15.08H15.9989C15.4469 15.08 14.9989 15.528 14.9989 16.08C14.9989 16.632 15.4469 17.08 15.9989 17.08H16.9989C20.2619 17.08 21.9989 14.996 21.9989 12.08C21.9989 9.16403 20.2619 7.08003 16.9989 7.08003H13.9989Z" fill="#5551FE"/>
</svg>
